<?xml version="1.0" encoding="UTF-8" standalone="no"?>
<svg width="600" height="400" xmlns="http://www.w3.org/2000/svg">
  <!-- Background -->
  <rect x="0" y="0" width="600" height="400" fill="#f8f9fa" rx="10" ry="10"/>
  
  <!-- Laptop -->
  <rect x="150" y="150" width="300" height="200" fill="#333" rx="10" ry="10"/>
  <rect x="160" y="160" width="280" height="170" fill="#fff" rx="5" ry="5"/>
  <rect x="200" y="350" width="200" height="10" fill="#333" rx="5" ry="5"/>
  
  <!-- Student -->
  <circle cx="450" cy="200" r="50" fill="#FFD1DC"/>
  <circle cx="450" cy="140" r="35" fill="#FFD1DC"/>
  <path d="M400 200 Q450 300 500 200" fill="#6495ED"/>
  
  <!-- Headphones -->
  <path d="M415 140 Q400 110 415 100 Q430 90 450 90 Q470 90 485 100 Q500 110 485 140" stroke="#333" stroke-width="3" fill="none"/>
  <rect x="410" y="140" width="10" height="25" fill="#333" rx="5" ry="5"/>
  <rect x="480" y="140" width="10" height="25" fill="#333" rx="5" ry="5"/>
  
  <!-- Teacher on screen -->
  <circle cx="250" cy="200" r="30" fill="#ADD8E6"/>
  <circle cx="250" cy="165" r="20" fill="#ADD8E6"/>
  <rect x="210" y="240" width="80" height="60" fill="#ADD8E6"/>
  
  <!-- Desk elements -->
  <rect x="150" y="360" width="300" height="10" fill="#D3D3D3"/>
  <rect x="350" y="350" width="30" height="20" fill="#90EE90"/>
</svg>
